# xmcd
#
# Track frame offsets:
#	150
#	12317
#	27669
#	41787
#	54312
#	68585
#	81575
#	95015
#	110072
#	126715
#	143185
#	157982
#	171117
#	185637
#
# Disc length: 2706 seconds
#
# Revision: 0
# Processed by: cddbd v1.5.1PL0 Copyright (c) Steve Scherf et al.
# Submitted via: dBpowerAMP V4.0
#
DISCID=ce0a900e
DTITLE=2 Danes - Det er så skønt
DYEAR=1900
DGENRE=Easy Listening
TTITLE0=Så længe himlen er blå
TTITLE1=Gi' mig kærlighed
TTITLE2=Dans calypso
TTITLE3=Det er så skønt
TTITLE4=Send et smil
TTITLE5=Sommersol
TTITLE6=Min kære
TTITLE7=Vi danser polka
TTITLE8=Jeg har en ven i dig
TTITLE9=De gode gamle dage
TTITLE10=Jeg ta'r til Jamaica
TTITLE11=Min kærlighed
TTITLE12=Vi ta'r en rock
TTITLE13=Vi ses måske igen
EXTD=
EXTT0=
EXTT1=
EXTT2=
EXTT3=
EXTT4=
EXTT5=
EXTT6=
EXTT7=
EXTT8=
EXTT9=
EXTT10=
EXTT11=
EXTT12=
EXTT13=
PLAYORDER=
